<?xml version="1.0" standalone="no"?>
<!DOCTYPE svg PUBLIC "-//W3C//DTD SVG 20010904//EN"
 "http://www.w3.org/TR/2001/REC-SVG-20010904/DTD/svg10.dtd">
<svg version="1.0" xmlns="http://www.w3.org/2000/svg"
 width="251.000000pt" height="251.000000pt" viewBox="0 0 251.000000 251.000000"
 preserveAspectRatio="xMidYMid meet">
<metadata>
Created by potrace 1.11, written by Peter Selinger 2001-2013
</metadata>
<g transform="translate(0.000000,251.000000) scale(0.100000,-0.100000)"
fill="#000000" stroke="none">
<path d="M713 2489 c-10 -4 -23 -13 -29 -20 -8 -11 -85 -208 -90 -229 0 -3 -4
-12 -7 -20 -4 -8 -17 -45 -30 -82 -20 -55 -21 -65 -8 -59 9 4 50 23 92 43 75
36 212 83 267 92 15 3 43 8 62 11 60 11 92 14 203 15 59 0 112 -2 117 -5 24
-15 7 27 -29 72 -70 89 -184 158 -303 182 -59 13 -211 13 -245 0z"/>
<path d="M1334 2208 c-4 -6 -8 -55 -9 -107 -4 -194 -79 -350 -257 -537 l-89
-92 75 29 c194 75 427 102 662 75 l61 -7 13 47 c20 72 17 178 -8 261 -22 72
-74 150 -135 203 -50 43 -146 98 -210 119 -70 24 -93 26 -103 9z"/>
<path d="M1407 1394 c-1 -1 -24 -5 -52 -8 -136 -18 -309 -78 -475 -163 -147
-76 -148 -78 -37 -78 115 0 153 -8 225 -44 110 -56 179 -158 189 -280 8 -96
-22 -192 -104 -334 -29 -51 -138 -170 -207 -226 -77 -63 -210 -150 -323 -211
-35 -19 -57 -37 -51 -41 10 -6 205 -2 253 5 11 2 43 6 70 10 64 10 239 61 319
93 214 87 407 220 540 373 96 112 187 280 211 393 62 290 -130 501 -465 510
-50 2 -92 2 -93 1z"/>
</g>
</svg>
